<?xml version="1.0" encoding="utf-8"?>
<!-- Generator: Adobe Illustrator 27.0.0, SVG Export Plug-In . SVG Version: 6.00 Build 0)  -->
<svg version="1.1" xmlns="http://www.w3.org/2000/svg" xmlns:xlink="http://www.w3.org/1999/xlink" x="0px" y="0px"
	 viewBox="0 0 800 800" style="enable-background:new 0 0 800 800;" xml:space="preserve">
<style type="text/css">
	.st0{fill:#FFFFFF;}
	.st1{fill:none;}
</style>
<g id="Layer_2">
	<circle class="st0" cx="397" cy="412" r="218"/>
</g>
<g id="Layer_1">
	<g id="SVGRepo_bgCarrier">
	</g>
	<g id="SVGRepo_tracerCarrier">
	</g>
	<g id="SVGRepo_iconCarrier">
		<g id="Layer_2_00000155148386015166488500000000790639786589751225_">
			<g id="invisible_box">
				<rect x="66.7" y="66.7" class="st1" width="666.7" height="666.7"/>
			</g>
			<g id="icons_Q2">
				<path d="M400,94.4C231.2,94.4,94.4,231.2,94.4,400S231.2,705.6,400,705.6S705.6,568.8,705.6,400
					c0.8-168-134.8-304.8-302.8-305.6C401.9,94.4,400.9,94.4,400,94.4z M400,205.6c23,0,41.7,18.7,41.7,41.7S423,288.9,400,288.9
					c-23,0-41.7-18.7-41.7-41.7c-0.8-22.2,16.6-40.9,38.8-41.7C398.1,205.5,399.1,205.5,400,205.6z M552.8,358.3h-97.2V425
					l27.8,136.1c2.6,15.2-7.1,29.9-22.2,33.3h-5.6c-13.2-0.3-24.6-9.4-27.8-22.2l-25-130.6h-5.6l-25,130.6
					c-3.1,12.9-14.6,22-27.8,22.2h-5.6c-15.1-3.5-24.8-18.1-22.2-33.3L344.4,425v-66.7h-97.2c-15.3,0-27.8-12.4-27.8-27.8
					c0-15.3,12.4-27.8,27.8-27.8h305.6c15.3,0,27.8,12.4,27.8,27.8C580.6,345.9,568.1,358.3,552.8,358.3z"/>
			</g>
		</g>
	</g>
</g>
</svg>
