<?xml version="1.0" encoding="utf-8"?>
<!-- Generator: Adobe Illustrator 27.0.0, SVG Export Plug-In . SVG Version: 6.00 Build 0)  -->
<svg version="1.1" xmlns="http://www.w3.org/2000/svg" xmlns:xlink="http://www.w3.org/1999/xlink" x="0px" y="0px"
	 viewBox="0 0 360 360" style="enable-background:new 0 0 360 360;" xml:space="preserve">
<style type="text/css">
	.st0{fill:#FFFFFF;}
</style>
<g id="Layer_2">
	<ellipse class="st0" cx="176.7" cy="186.8" rx="148.7" ry="149.5"/>
</g>
<g id="Layer_1">
	<g transform="translate(0.000000,360.000000) scale(0.100000,-0.100000)">
		<path d="M1917,3436c-92-38-106-56-60-79c25-14,20-15-78-21c-331-22-639-60-760-95c-190-54-349-196-494-443
			c-189-319-296-758-296-1212c0-735,269-1172,834-1361c635-212,1454-5,1919,483c239,251,366,557,398,959c23,287-31,564-161,828
			c-114,231-268,412-504,589c-115,86-164,114-413,237c-156,76-293,139-305,139S1949,3449,1917,3436z M1866,3140
			c49-12,144-52,251-104l171-85l59,15c32,9,67,18,78,21c12,2,71-26,155-74c110-63,152-95,226-168c206-204,313-437,345-757
			c20-195-8-409-81-630c-80-242-200-437-375-614c-169-172-337-271-547-323C1610,286,948,435,678,751c-266,312-327,1047-134,1624
			c72,213,171,380,295,497c87,82,149,118,296,173C1409,3147,1692,3184,1866,3140z"/>
		<path d="M1145,2217c-44-44-55-108-30-173c20-53,58-80,124-90c109-16,174,98,121,213c-24,55-70,83-133,83
			C1185,2250,1173,2245,1145,2217z"/>
		<path d="M2215,2207c-31-17-42-31-52-66c-18-63-1-135,44-180c31-31,37-33,82-29c56,6,92,29,119,78c31,54,36,99,15,140
			C2384,2226,2293,2251,2215,2207z"/>
		<path d="M874,1674c-18-70,28-226,97-328c123-185,367-317,656-356c129-18,343-8,453,20c228,59,406,192,486,365c27,58,57,182,50,201
			c-9,23-52,17-64-10c-17-38-131-154-197-201c-106-75-227-126-370-156c-80-17-291-17-385,0c-169,30-359,111-471,201
			c-97,78-130,125-187,263C926,1710,883,1711,874,1674z"/>
	</g>
</g>
</svg>
