<?xml version="1.0" encoding="utf-8"?>
<!-- Generator: Adobe Illustrator 27.0.0, SVG Export Plug-In . SVG Version: 6.00 Build 0)  -->
<svg version="1.1" xmlns="http://www.w3.org/2000/svg" xmlns:xlink="http://www.w3.org/1999/xlink" x="0px" y="0px"
	 viewBox="0 0 128 128" style="enable-background:new 0 0 128 128;" xml:space="preserve">
<style type="text/css">
	.st0{fill:#FFFFFF;}
</style>
<g id="Layer_2">
	<rect x="31.5" y="45.6" class="st0" width="65.3" height="65.3"/>
</g>
<g id="Layer_1" xmlns:cc="http://creativecommons.org/ns#" xmlns:svg="http://www.w3.org/2000/svg" xmlns:rdf="http://www.w3.org/1999/02/22-rdf-syntax-ns#" xmlns:dc="http://purl.org/dc/elements/1.1/">
	<path d="M29.1,11.2c-3.2,0-5.7,2.6-5.7,5.8V111c0,3.2,2.5,5.8,5.7,5.8h69.8c3.2,0,5.7-2.6,5.7-5.8V40.3h-21c-4.3,0-8.1-3.1-8.1-7.3
		V11.2H29.1z M79.5,11.2V33c0,1.7,1.6,3.3,4.1,3.3h21L79.5,11.2z M43.1,47.9H85l0.6,12.1h-1.4c-0.3-2.1-0.6-3.7-1.1-4.6
		c-0.8-1.5-1.8-2.5-3.2-3.2c-1.3-0.7-3-1.1-5.1-1.1h-7.2v39.2c0,3.2,0.3,5.1,1,5.9c1,1.1,2.4,1.6,4.4,1.6h1.8v1.4H52.9v-1.4h1.8
		c2.2,0,3.7-0.7,4.6-2c0.6-0.8,0.8-2.7,0.8-5.5V51.1H54c-2.4,0-4.1,0.2-5.1,0.5c-1.3,0.5-2.4,1.4-3.4,2.8c-0.9,1.4-1.5,3.2-1.7,5.5
		h-1.4L43.1,47.9z"/>
</g>
</svg>
