<svg xmlns="http://www.w3.org/2000/svg" version="1.1" xmlns:xlink="http://www.w3.org/1999/xlink" xmlns:svgjs="http://svgjs.dev/svgjs" width="2000" height="1500" viewBox="0 0 2000 1500"><rect width="2000" height="1500" fill="#503e80"></rect><g transform="matrix(0.75,0,0,0.75,249.090909090909,632.3600411513169)"><svg viewBox="0 0 396 62" data-background-color="#503e80" preserveAspectRatio="xMidYMid meet" height="313" width="2000" xmlns="http://www.w3.org/2000/svg" xmlns:xlink="http://www.w3.org/1999/xlink"><g id="tight-bounds" transform="matrix(1,0,0,1,0.2400000000000091,0.0699784818673379)"><svg viewBox="0 0 395.52 61.860043036265324" height="61.860043036265324" width="395.52"><g><svg viewBox="0 0 395.52 61.860043036265324" height="61.860043036265324" width="395.52"><g><svg viewBox="0 0 395.52 61.860043036265324" height="61.860043036265324" width="395.52"><g id="textblocktransform"><svg viewBox="0 0 395.52 61.860043036265324" height="61.860043036265324" width="395.52" id="textblock"><g><svg viewBox="0 0 395.52 33.36435131907501" height="33.36435131907501" width="395.52"><g transform="matrix(1,0,0,1,0,0)"><svg width="395.52" viewBox="1.05 -38.35 467.51 38.85" height="33.36435131907501" data-palette-color="#a48bad"><g class="wordmark-text-0" data-fill-palette-color="primary" id="text-0"><path d="M1.05-34.05L1.05-35 16.65-35 16.65-34.05 13.75-34.05 13.75-18.55 23.7-18.55 23.7-34.05 20.75-34.05 20.75-35 36.4-35 36.4-34.05 33.45-34.05 33.45-0.95 36.4-0.95 36.4 0 20.75 0 20.75-0.95 23.7-0.95 23.7-17.25 13.75-17.25 13.75-0.95 16.65-0.95 16.65 0 1.05 0 1.05-0.95 4-0.95 4-34.05 1.05-34.05ZM49.95-11.75L49.95-11.75 51.4-11.75 51.4-15.6Q51.4-20.35 50.87-21.98 50.35-23.6 48.85-23.6L48.85-23.6Q47.95-23.6 47.22-23.13 46.5-22.65 46.5-21.83 46.5-21 46.8-20.15L46.8-20.15 48.05-20.15Q48.45-19.1 48.45-17.63 48.45-16.15 47.2-15.08 45.95-14 44.05-14L44.05-14Q39.75-14 39.75-18.15L39.75-18.15Q39.75-24.3 50.2-24.3L50.2-24.3Q56.15-24.3 58.42-22.28 60.7-20.25 60.7-14.85L60.7-14.85 60.7-4.7Q60.7-2.1 62.15-2.1L62.15-2.1Q63.85-2.1 64.15-7.25L64.15-7.25 64.9-7.2Q64.7-2.8 63.25-1.15 61.8 0.5 58.5 0.5L58.5 0.5Q52.5 0.5 51.6-3.2L51.6-3.2Q50.95-1.3 49.65-0.4 48.35 0.5 45.85 0.5L45.85 0.5Q38.45 0.5 38.45-5.55L38.45-5.55Q38.45-9.1 41.27-10.43 44.1-11.75 49.95-11.75ZM47.95-5.6Q47.95-3 48.22-2.25 48.5-1.5 49.27-1.5 50.05-1.5 50.72-2.78 51.4-4.05 51.4-6.3L51.4-6.3 51.4-10.95 51.05-10.95Q47.95-10.95 47.95-6.4L47.95-6.4 47.95-5.6ZM78.55 0.5Q72.1 0.5 68.87-2.83 65.65-6.15 65.65-12.08 65.65-18 69.27-21.15 72.9-24.3 78.5-24.3L78.5-24.3Q89.85-24.3 89.4-12.9L89.4-12.9 75.3-12.9 75.3-10.95Q75.3-6.05 76.55-3.55 77.8-1.05 80.9-1.05L80.9-1.05Q86.7-1.05 88.5-7.25L88.5-7.25 89.4-7.1Q88.45-3.5 85.97-1.5 83.5 0.5 78.55 0.5L78.55 0.5ZM75.35-16.35L75.35-13.9 80.5-13.9 80.5-16.35Q80.5-20.4 80.02-21.88 79.55-23.35 78.12-23.35 76.7-23.35 76.02-21.78 75.35-20.2 75.35-16.35L75.35-16.35ZM107.34-9.85L107.34-9.85 107.34-14.1Q107.34-18.95 106.82-21.18 106.29-23.4 104.39-23.4L104.39-23.4Q103.29-23.4 102.62-22.78 101.94-22.15 101.64-20.7L101.64-20.7Q101.19-18.45 101.19-13.85L101.19-13.85 101.19-9.95Q101.19-4.5 101.52-3.4 101.84-2.3 102.19-1.6L102.19-1.6Q102.74-0.4 104.34-0.4L104.34-0.4Q106.29-0.4 106.89-2.65L106.89-2.65Q107.34-4.25 107.34-9.85ZM104.24 0.5Q97.99 0.5 94.79-2.7 91.59-5.9 91.59-11.88 91.59-17.85 95.02-21.08 98.44-24.3 104.64-24.3 110.84-24.3 113.89-21.33 116.94-18.35 116.94-12.25L116.94-12.25Q116.94 0.5 104.24 0.5L104.24 0.5ZM118.44-22.9L118.44-23.8 130.49-23.8 130.49-19.2Q131.29-21.5 132.94-22.9 134.59-24.3 137.94-24.3L137.94-24.3Q145.69-24.3 145.69-15.95L145.69-15.95 145.69-0.9 148.49-0.9 148.49 0 134.34 0 134.34-0.9 136.39-0.9 136.39-17.15Q136.39-20.15 135.99-21.03 135.59-21.9 134.54-21.9L134.54-21.9Q132.94-21.9 131.72-19.8 130.49-17.7 130.49-14.7L130.49-14.7 130.49-0.9 132.64-0.9 132.64 0 118.44 0 118.44-0.9 121.19-0.9 121.19-22.9 118.44-22.9ZM153.64-24.05L152.59-24.05 151.14-37.35Q153.14-38.35 154.39-38.35L154.39-38.35Q156.09-38.35 156.09-36.5L156.09-36.5Q156.09-35.35 155.64-33.2L155.64-33.2 153.64-24.05ZM160.19 0.5L159.59 0.5 159.59-8.45 160.19-8.45Q161.49-4.1 163.69-2.35 165.89-0.6 169.19-0.6L169.19-0.6Q174.29-0.6 174.29-3.85L174.29-3.85Q174.29-5.25 173.04-5.95L173.04-5.95Q171.09-7.05 168.04-7.65L168.04-7.65Q164.64-8.55 162.34-10.05L162.34-10.05Q159.59-11.85 159.59-15.75 159.59-19.65 161.99-21.98 164.39-24.3 168.39-24.3L168.39-24.3Q170.84-24.3 173.44-23.15L173.44-23.15Q174.39-22.75 174.89-22.75 175.39-22.75 175.74-23.1 176.09-23.45 176.59-24.4L176.59-24.4 177.14-24.4 177.14-16.75 176.54-16.75Q173.99-23.25 168.64-23.25L168.64-23.25Q166.29-23.25 165.14-22.43 163.99-21.6 163.99-20.35L163.99-20.35Q163.99-19.6 164.34-19.18 164.69-18.75 164.89-18.55 165.09-18.35 165.54-18.13 165.99-17.9 166.29-17.78 166.59-17.65 167.21-17.45 167.84-17.25 168.14-17.2L168.14-17.2Q171.54-16.35 173.04-15.73 174.54-15.1 175.89-14.2L175.89-14.2Q178.64-12.3 178.64-8.08 178.64-3.85 176.14-1.68 173.64 0.5 169.29 0.5L169.29 0.5Q166.19 0.5 163.29-0.95L163.29-0.95Q162.69-1.35 162.34-1.35L162.34-1.35Q161.24-1.35 160.19 0.5L160.19 0.5ZM180.38-34.05L180.38-35 195.08-35Q202.63-35 206.33-32.83 210.03-30.65 210.03-25.05L210.03-25.05Q210.03-18.85 205.53-16.5L205.53-16.5Q201.33-14.35 193.78-14.35L193.78-14.35 193.38-14.35 193.38-0.95 199.63-0.95 199.63 0 180.38 0 180.38-0.95 183.63-0.95 183.63-34.05 180.38-34.05ZM194.73-34.05L193.38-34.05 193.38-15.3 194.43-15.3Q197.43-15.3 198.58-17.35 199.73-19.4 199.73-24L199.73-24 199.73-26.4Q199.73-30.65 198.66-32.35 197.58-34.05 194.73-34.05L194.73-34.05ZM236.38-15.45L236.38-15.45 236.38-19.15Q236.38-28.3 235.48-30.7L235.48-30.7Q234.48-33.45 232.63-34.1L232.63-34.1Q231.58-34.5 230.08-34.5 228.58-34.5 227.51-34.1 226.43-33.7 225.73-32.7 225.03-31.7 224.61-30.6 224.18-29.5 223.93-27.5L223.93-27.5Q223.63-24.6 223.63-18.95L223.63-18.95 223.63-15.35Q223.63-9.25 224.11-6.68 224.58-4.1 225.28-3L225.28-3Q226.83-0.55 230.08-0.55L230.08-0.55Q234.03-0.55 235.21-3.88 236.38-7.2 236.38-15.45ZM229.98 0.5Q221.63 0.5 217.51-4.03 213.38-8.55 213.38-17.13 213.38-25.7 217.81-30.63 222.23-35.55 230.33-35.55 238.43-35.55 242.56-30.88 246.68-26.2 246.68-17.6 246.68-9 242.51-4.25 238.33 0.5 229.98 0.5ZM265.13-17.7L265.13-17.7 262.48-17.7 262.48-0.95 265.73-0.95 265.73 0 249.48 0 249.48-0.95 252.73-0.95 252.73-34.05 249.48-34.05 249.48-35 264.58-35Q271.08-35 273.8-34.33 276.53-33.65 277.63-32.7L277.63-32.7Q280.03-30.75 280.03-26.5 280.03-22.25 277.93-20.43 275.83-18.6 271.53-18.25L271.53-18.25 271.53-18.1Q275.58-17.55 277.18-15.7 278.78-13.85 278.78-9.5L278.78-9.5 278.78-6.85Q278.78-4.25 279.05-3.35 279.33-2.45 280.23-2.45 281.13-2.45 281.65-3.28 282.18-4.1 282.63-6.75L282.63-6.75 283.48-6.65Q282.93-2.4 281.55-0.95 280.18 0.5 276.08 0.5 271.98 0.5 270.25-1.43 268.53-3.35 268.53-8.65L268.53-8.65 268.53-12.3Q268.53-15.1 267.8-16.4 267.08-17.7 265.13-17.7ZM264.13-34.05L262.48-34.05 262.48-18.65 264.08-18.65Q266.93-18.65 268.3-20.4 269.68-22.15 269.68-26.1L269.68-26.1 269.68-27.55Q269.68-31.5 268.35-32.77 267.03-34.05 264.13-34.05L264.13-34.05ZM286.83-35L316.33-35 316.83-22.45 315.88-22.45Q313.68-29.1 311.98-31.53 310.28-33.95 307.08-33.95L307.08-33.95 306.48-33.95 306.48-1.05 310.73-1.05 310.73 0 292.48 0 292.48-1.05 296.73-1.05 296.73-33.95 296.08-33.95Q292.88-33.95 291.13-31.43 289.38-28.9 287.28-22.45L287.28-22.45 286.33-22.45 286.83-35ZM319.72-33.9L319.72-35 345.72-35 346.22-24.6 345.32-24.6Q343.47-30 341.05-31.95 338.62-33.9 333.82-33.9L333.82-33.9 332.42-33.9 332.42-17.65 334.67-17.65Q337.07-17.65 338.67-19.4 340.27-21.15 340.87-24.2L340.87-24.2 341.62-24.2 341.62-9.4 340.77-9.4Q339.97-13.15 338.55-14.75 337.12-16.35 334.67-16.35L334.67-16.35 332.42-16.35 332.42-1.1 338.62-1.1 338.62 0 319.72 0 319.72-1.1 322.67-1.1 322.67-33.9 319.72-33.9ZM373.32-15.45L373.32-15.45 373.32-19.15Q373.32-28.3 372.42-30.7L372.42-30.7Q371.42-33.45 369.57-34.1L369.57-34.1Q368.52-34.5 367.02-34.5 365.52-34.5 364.45-34.1 363.37-33.7 362.67-32.7 361.97-31.7 361.55-30.6 361.12-29.5 360.87-27.5L360.87-27.5Q360.57-24.6 360.57-18.95L360.57-18.95 360.57-15.35Q360.57-9.25 361.05-6.68 361.52-4.1 362.22-3L362.22-3Q363.77-0.55 367.02-0.55L367.02-0.55Q370.97-0.55 372.15-3.88 373.32-7.2 373.32-15.45ZM366.92 0.5Q358.57 0.5 354.45-4.03 350.32-8.55 350.32-17.13 350.32-25.7 354.75-30.63 359.17-35.55 367.27-35.55 375.37-35.55 379.5-30.88 383.62-26.2 383.62-17.6 383.62-9 379.45-4.25 375.27 0.5 366.92 0.5ZM386.72-33.9L386.72-35 404.72-35 404.72-33.9 399.42-33.9 399.42-1.1 401.22-1.1Q405.47-1.1 407.99-3.7 410.52-6.3 413.12-11.7L413.12-11.7 414.17-11.7 413.22 0 386.72 0 386.72-1.1 389.67-1.1 389.67-33.9 386.72-33.9ZM416.72-34.05L416.72-35 431.97-35 431.97-34.05 429.22-34.05 429.22-0.95 431.97-0.95 431.97 0 416.72 0 416.72-0.95 419.47-0.95 419.47-34.05 416.72-34.05ZM458.26-15.45L458.26-15.45 458.26-19.15Q458.26-28.3 457.36-30.7L457.36-30.7Q456.36-33.45 454.51-34.1L454.51-34.1Q453.46-34.5 451.96-34.5 450.46-34.5 449.39-34.1 448.31-33.7 447.61-32.7 446.91-31.7 446.49-30.6 446.06-29.5 445.81-27.5L445.81-27.5Q445.51-24.6 445.51-18.95L445.51-18.95 445.51-15.35Q445.51-9.25 445.99-6.68 446.46-4.1 447.16-3L447.16-3Q448.71-0.55 451.96-0.55L451.96-0.55Q455.91-0.55 457.09-3.88 458.26-7.2 458.26-15.45ZM451.86 0.5Q443.51 0.5 439.39-4.03 435.26-8.55 435.26-17.13 435.26-25.7 439.69-30.63 444.11-35.55 452.21-35.55 460.31-35.55 464.44-30.88 468.56-26.2 468.56-17.6 468.56-9 464.39-4.25 460.21 0.5 451.86 0.5Z" fill="#a48bad" data-fill-palette-color="primary"></path></g></svg></g></svg></g><g transform="matrix(1,0,0,1,131.54190049318873,41.24087392107697)"><svg viewBox="0 0 132.4361990136225 20.619169115188356" height="20.619169115188356" width="132.4361990136225"><g transform="matrix(1,0,0,1,0,0)"><svg width="132.4361990136225" viewBox="-1.0409090909090906 -37.8 315.3379361155841 49.099999999999994" height="20.619169115188356" data-palette-color="#a48bad"><path d="M18.15-12.7L23-28.2 21.45-32.5 17.6-33.5Q17.45-34.45 17.85-35.25L17.85-35.25Q18.75-35.2 20-35.15 21.25-35.1 22.53-35.05 23.8-35 24.7-35L24.7-35Q26.15-35 28.15-35.1 30.15-35.2 31.55-35.25L31.55-35.25Q31.7-34.3 31.45-33.5L31.45-33.5Q30.45-33.3 29.43-33.18 28.4-33.05 27.4-32.5L27.4-32.5 33.6-13.1Q34.15-11.35 34.8-9.2 35.45-7.05 35.75-5.3L35.75-5.3 35.85-5.3Q36.2-7.2 36.7-9.2 37.2-11.2 37.7-13.1L37.7-13.1 42.8-32.5 38.45-33.5Q38.3-34.45 38.7-35.25L38.7-35.25Q40.05-35.2 41.5-35.1 42.95-35 44.35-35L44.35-35Q45.8-35 47.05-35.1 48.3-35.2 49.7-35.25L49.7-35.25Q49.85-34.3 49.6-33.5L49.6-33.5Q48.6-33.3 47.55-33.1 46.5-32.9 45.5-32.5L45.5-32.5 36.25 1Q35.9 1.2 35.02 1.35 34.15 1.5 33.7 1.5L33.7 1.5 24.4-24.35 16.25 1Q15.9 1.2 15.13 1.35 14.35 1.5 13.9 1.5L13.9 1.5 2.85-32.5-1-33.5Q-1.15-34.45-0.75-35.25L-0.75-35.25Q0.15-35.2 1.4-35.15 2.65-35.1 3.93-35.05 5.2-35 6.1-35L6.1-35Q7.55-35 9.55-35.1 11.55-35.2 12.95-35.25L12.95-35.25Q13.1-34.3 12.85-33.5L12.85-33.5Q11.75-33.4 10.7-33.15 9.65-32.9 8.65-32.5L8.65-32.5 13.9-12.85Q14.45-10.9 15-8.78 15.55-6.65 15.9-4.75L15.9-4.75 16-4.75Q16.3-6.65 16.88-8.65 17.45-10.65 18.15-12.7L18.15-12.7ZM56.75-13.5L56.75-12.5Q56.75-7.45 58.77-4.67 60.8-1.9 64.3-1.9L64.3-1.9Q65.85-1.9 66.9-2.08 67.95-2.25 68.97-2.75 70-3.25 71.3-4.15L71.3-4.15Q72.1-3.8 72.2-2.95L72.2-2.95Q70.65-1.15 68.5-0.15 66.35 0.85 64.15 0.85L64.15 0.85Q60.35 0.85 57.5-0.75 54.65-2.35 53.05-5.35 51.45-8.35 51.45-12.5L51.45-12.5Q51.45-16.75 53.12-19.73 54.8-22.7 57.62-24.28 60.45-25.85 63.9-25.85L63.9-25.85Q68.35-25.85 70.47-22.88 72.6-19.9 72.6-15.2L72.6-15.2Q72.6-14.85 72.6-14.55 72.6-14.25 72.55-13.9L72.55-13.9 71.85-13.35 56.75-13.5ZM63.85-23.7L63.85-23.7Q62.4-23.7 60.97-22.8 59.55-21.9 58.45-20.1 57.35-18.3 56.95-15.55L56.95-15.55 67.85-16.15Q67.85-20 67.02-21.85 66.2-23.7 63.85-23.7ZM82.69-37.25L82.69-22.75 82.94-22.5Q84.94-24.25 86.84-24.88 88.75-25.5 90.44-25.5L90.44-25.5Q93.69-25.5 96.05-23.9 98.39-22.3 99.67-19.38 100.94-16.45 100.94-12.45L100.94-12.45Q100.94-8.1 99.22-5.1 97.5-2.1 94.47-0.55 91.44 1 87.44 1L87.44 1Q85.39 1 82.72 0.5 80.05 0 77.94-0.9L77.94-0.9 77.94-34.3 73.8-34.7Q73.64-35.7 74.05-36.45L74.05-36.45Q75.84-36.7 77.5-37.05 79.14-37.4 80.69-37.8L80.69-37.8Q81.64-37.75 82.69-37.25L82.69-37.25ZM82.94-19.6L82.94-2.15Q84.05-1.65 85.14-1.33 86.25-1 87.94-1L87.94-1Q91.5-1 93.55-4 95.59-7 95.59-12.45L95.59-12.45Q95.59-17.7 93.62-20.13 91.64-22.55 88.94-22.55L88.94-22.55Q87.69-22.55 86.5-22.08 85.3-21.6 84.34-20.93 83.39-20.25 82.94-19.6L82.94-19.6ZM129.64 0.35L123.39 0Q121.99 0 119.96 0.08 117.94 0.15 116.54 0.25L116.54 0.25Q116.39-0.7 116.64-1.5L116.64-1.5Q117.69-1.65 118.69-1.9 119.69-2.15 120.64-2.5L120.64-2.5 120.64-32.5 116.79-33.5Q116.64-34.45 117.04-35.25L117.04-35.25Q118.39-35.2 120.06-35.1 121.74-35 123.14-35L123.14-35 129.64-35.2Q136.74-35.2 141.09-32.98 145.44-30.75 147.41-26.85 149.39-22.95 149.39-18L149.39-18Q149.39-12.85 147.74-9.33 146.09-5.8 143.29-3.68 140.49-1.55 136.97-0.6 133.44 0.35 129.64 0.35L129.64 0.35ZM125.89-32.75L125.89-2.25Q127.64-2.1 129.19-2.1L129.19-2.1Q134.59-2.1 137.81-3.83 141.04-5.55 142.44-9.08 143.84-12.6 143.84-18L143.84-18Q143.84-22.8 142.37-26.13 140.89-29.45 137.51-31.15 134.14-32.85 128.44-32.85L128.44-32.85Q127.84-32.85 127.21-32.83 126.59-32.8 125.89-32.75L125.89-32.75ZM158.89-13.5L158.89-12.5Q158.89-7.45 160.91-4.67 162.94-1.9 166.44-1.9L166.44-1.9Q167.99-1.9 169.04-2.08 170.09-2.25 171.11-2.75 172.14-3.25 173.44-4.15L173.44-4.15Q174.24-3.8 174.34-2.95L174.34-2.95Q172.79-1.15 170.64-0.15 168.49 0.85 166.29 0.85L166.29 0.85Q162.49 0.85 159.64-0.75 156.79-2.35 155.19-5.35 153.59-8.35 153.59-12.5L153.59-12.5Q153.59-16.75 155.26-19.73 156.94-22.7 159.76-24.28 162.59-25.85 166.04-25.85L166.04-25.85Q170.49-25.85 172.61-22.88 174.74-19.9 174.74-15.2L174.74-15.2Q174.74-14.85 174.74-14.55 174.74-14.25 174.69-13.9L174.69-13.9 173.99-13.35 158.89-13.5ZM165.99-23.7L165.99-23.7Q164.54-23.7 163.11-22.8 161.69-21.9 160.59-20.1 159.49-18.3 159.09-15.55L159.09-15.55 169.99-16.15Q169.99-20 169.16-21.85 168.34-23.7 165.99-23.7ZM181.44-7.5L181.94-2.2Q182.99-1.7 184.06-1.5 185.14-1.3 186.49-1.3L186.49-1.3Q188.54-1.3 190.14-2.2 191.74-3.1 191.74-5.1L191.74-5.1Q191.74-6.15 191.16-7.05 190.59-7.95 189.16-8.9 187.74-9.85 185.09-11.05L185.09-11.05Q182.19-12.4 180.59-14.18 178.99-15.95 178.99-19.1L178.99-19.1Q178.99-21.65 180.26-23.13 181.54-24.6 183.56-25.25 185.59-25.9 187.84-25.9L187.84-25.9Q189.79-25.9 191.71-25.53 193.64-25.15 195.14-24.5L195.14-24.5Q195.14-24.25 195.16-23.95 195.19-23.65 195.19-23.4L195.19-23.4Q195.19-20.35 194.24-17.65L194.24-17.65Q194.04-17.6 193.86-17.57 193.69-17.55 193.49-17.55L193.49-17.55Q192.74-17.55 191.99-17.85L191.99-17.85 191.19-23.25Q190.54-23.45 189.69-23.58 188.84-23.7 187.99-23.7L187.99-23.7Q186.84-23.7 185.71-23.38 184.59-23.05 183.86-22.28 183.14-21.5 183.14-20.1L183.14-20.1Q183.14-19.15 183.56-18.3 183.99-17.45 185.26-16.53 186.54-15.6 189.09-14.35L189.09-14.35Q193.09-12.45 194.71-10.68 196.34-8.9 196.34-6.25L196.34-6.25Q196.34-3.7 194.99-2.1 193.64-0.5 191.46 0.25 189.29 1 186.84 1L186.84 1Q184.49 1 182.46 0.63 180.44 0.25 178.39-1L178.39-1 178.39-1.85Q178.39-3.2 178.56-4.63 178.74-6.05 179.29-7.7L179.29-7.7Q179.59-7.75 179.79-7.75L179.79-7.75Q180.69-7.75 181.44-7.5L181.44-7.5ZM208.28-24.95L208.28-2.5 211.63-1.5Q211.78-0.55 211.38 0.25L211.38 0.25Q210.03 0.15 208.61 0.08 207.18 0 205.78 0L205.78 0Q204.38 0 202.73 0.08 201.08 0.15 199.68 0.25L199.68 0.25Q199.53-0.7 199.78-1.5L199.78-1.5Q200.73-1.75 201.66-1.95 202.58-2.15 203.28-2.5L203.28-2.5 203.28-22 199.13-22.4Q198.98-23.4 199.38-24.15L199.38-24.15Q201.18-24.4 203.01-24.75 204.83-25.1 206.38-25.5L206.38-25.5Q206.88-25.45 207.33-25.33 207.78-25.2 208.28-24.95L208.28-24.95ZM204.93-30.05L204.93-30.05Q204.08-30.05 203.38-30.6 202.68-31.15 202.28-31.95 201.88-32.75 201.88-33.45L201.88-33.45Q201.88-34.1 202.43-34.77 202.98-35.45 203.81-35.93 204.63-36.4 205.43-36.4L205.43-36.4Q206.33-36.4 207.03-35.83 207.73-35.25 208.11-34.48 208.48-33.7 208.48-33L208.48-33Q208.48-32.35 207.96-31.65 207.43-30.95 206.61-30.5 205.78-30.05 204.93-30.05ZM225.38-8.35L225.38-8.35Q224.48-8.35 223.53-8.47 222.58-8.6 221.58-8.9L221.58-8.9Q221.08-8.15 220.88-7.7 220.68-7.25 220.68-6.95L220.68-6.95Q220.68-6.5 221.03-6.05 221.38-5.6 222.88-5.18 224.38-4.75 227.78-4.35L227.78-4.35Q231.13-3.95 233.38-3.3 235.63-2.65 236.78-1.25 237.93 0.15 237.93 2.75L237.93 2.75Q237.93 5 236.83 6.6 235.73 8.2 233.88 9.25 232.03 10.3 229.83 10.8 227.63 11.3 225.38 11.3L225.38 11.3Q221.58 11.3 219.21 10.4 216.83 9.5 215.71 7.98 214.58 6.45 214.58 4.7L214.58 4.7Q214.58 2.9 215.58 1.13 216.58-0.65 219.28-1.75L219.28-1.75Q217.63-3.2 217.63-5.05L217.63-5.05Q217.63-6.7 218.26-7.78 218.88-8.85 219.68-9.6L219.68-9.6Q217.68-10.6 216.33-12.33 214.98-14.05 214.98-16.65L214.98-16.65Q214.98-19.05 215.93-20.7 216.88-22.35 218.43-23.35 219.98-24.35 221.81-24.8 223.63-25.25 225.38-25.25L225.38-25.25Q226.58-25.25 227.88-25.05 229.18-24.85 230.38-24.35L230.38-24.35 237.03-28.45Q237.43-28.25 237.78-27.55 238.13-26.85 238.33-26.08 238.53-25.3 238.43-24.8L238.43-24.8Q237.08-24.35 235.43-23.98 233.78-23.6 232.08-23.5L232.08-23.5Q233.68-22.55 234.73-20.85 235.78-19.15 235.78-16.65L235.78-16.65Q235.78-14.45 234.81-12.88 233.83-11.3 232.23-10.3 230.63-9.3 228.83-8.83 227.03-8.35 225.38-8.35ZM225.38-10.25L225.38-10.25Q227.93-10.25 229.58-12.08 231.23-13.9 231.23-16.75L231.23-16.75Q231.23-19.85 229.58-21.6 227.93-23.35 225.38-23.35L225.38-23.35Q222.83-23.35 221.18-21.6 219.53-19.85 219.53-16.75L219.53-16.75Q219.53-13.9 221.18-12.08 222.83-10.25 225.38-10.25ZM226.13-0.35L226.13-0.35Q225.23-0.5 223.86-0.65 222.48-0.8 221.08-1.15L221.08-1.15Q219.88-0.15 219.26 0.98 218.63 2.1 218.63 4L218.63 4Q218.63 6.1 220.43 7.75 222.23 9.4 225.63 9.4L225.63 9.4Q228.08 9.4 229.83 8.6 231.58 7.8 232.51 6.55 233.43 5.3 233.43 4.05L233.43 4.05Q233.43 2.55 232.41 1.7 231.38 0.85 229.71 0.38 228.03-0.1 226.13-0.35ZM248.43-25.05L248.28-21.65 248.33-21.6Q250.73-24 253.28-24.9 255.83-25.8 257.73-25.8L257.73-25.8Q260.98-25.8 262.85-23.95 264.73-22.1 264.73-18.55L264.73-18.55 264.78-2.5 268.28-1.5Q268.43-0.55 268.03 0.25L268.03 0.25Q266.68 0.15 265.18 0.08 263.68 0 262.28 0L262.28 0Q260.88 0 259.33 0.08 257.78 0.15 256.38 0.25L256.38 0.25Q256.23-0.7 256.48-1.5L256.48-1.5Q257.48-1.7 258.25-1.95 259.03-2.2 259.78-2.5L259.78-2.5 259.78-16.3Q259.78-19.7 258.73-21 257.68-22.3 255.38-22.3L255.38-22.3Q253.53-22.3 251.78-21.58 250.03-20.85 248.68-19.3L248.68-19.3 248.68-2.5 252.03-1.5Q252.18-0.55 251.78 0.25L251.78 0.25Q250.43 0.15 249 0.08 247.58 0 246.18 0L246.18 0Q244.78 0 243.13 0.08 241.48 0.15 240.08 0.25L240.08 0.25Q239.93-0.7 240.18-1.5L240.18-1.5Q241.08-1.75 241.98-1.98 242.88-2.2 243.68-2.5L243.68-2.5 243.68-22 239.53-22.4Q239.38-23.4 239.78-24.15L239.78-24.15Q241.63-24.45 243.38-24.8 245.13-25.15 246.73-25.5L246.73-25.5Q247.58-25.45 248.43-25.05L248.43-25.05ZM275.97-13.5L275.97-12.5Q275.97-7.45 278-4.67 280.02-1.9 283.52-1.9L283.52-1.9Q285.07-1.9 286.13-2.08 287.18-2.25 288.2-2.75 289.22-3.25 290.52-4.15L290.52-4.15Q291.32-3.8 291.43-2.95L291.43-2.95Q289.88-1.15 287.72-0.15 285.57 0.85 283.38 0.85L283.38 0.85Q279.57 0.85 276.72-0.75 273.88-2.35 272.27-5.35 270.68-8.35 270.68-12.5L270.68-12.5Q270.68-16.75 272.35-19.73 274.02-22.7 276.85-24.28 279.68-25.85 283.13-25.85L283.13-25.85Q287.57-25.85 289.7-22.88 291.82-19.9 291.82-15.2L291.82-15.2Q291.82-14.85 291.82-14.55 291.82-14.25 291.77-13.9L291.77-13.9 291.07-13.35 275.97-13.5ZM283.07-23.7L283.07-23.7Q281.63-23.7 280.2-22.8 278.77-21.9 277.68-20.1 276.57-18.3 276.18-15.55L276.18-15.55 287.07-16.15Q287.07-20 286.25-21.85 285.43-23.7 283.07-23.7ZM303.57-16.85L303.57-2.5 308.42-1.5Q308.57-0.55 308.17 0.25L308.17 0.25Q307.27 0.2 305.95 0.15 304.62 0.1 303.32 0.05 302.02 0 301.07 0L301.07 0Q299.67 0 298.02 0.08 296.37 0.15 294.97 0.25L294.97 0.25Q294.82-0.7 295.07-1.5L295.07-1.5Q296.02-1.75 296.95-1.95 297.87-2.15 298.57-2.5L298.57-2.5 298.57-22 294.42-22.4Q294.27-23.4 294.67-24.15L294.67-24.15Q296.47-24.4 298.3-24.75 300.12-25.1 301.67-25.5L301.67-25.5Q302.17-25.45 302.5-25.33 302.82-25.2 303.32-24.95L303.32-24.95 303.32-20.4 303.37-20.35Q304.92-22.65 306.85-24.25 308.77-25.85 310.97-25.85L310.97-25.85Q311.82-25.85 312.65-25.73 313.47-25.6 314.27-25.1L314.27-25.1Q314.37-23.05 314.1-21.2 313.82-19.35 313.27-17.6L313.27-17.6Q312.92-17.55 312.17-17.57 311.42-17.6 311.02-17.8L311.02-17.8 310.32-22.8Q308.57-22.8 306.8-21.53 305.02-20.25 303.57-16.85L303.57-16.85Z" opacity="1" transform="matrix(1,0,0,1,0,0)" fill="#a48bad" class="slogan-text-1" data-fill-palette-color="secondary" id="text-1"></path></svg></g></svg></g></svg></g></svg></g><g></g></svg></g><defs></defs></svg><rect width="395.52" height="61.860043036265324" fill="none" stroke="none" visibility="hidden"></rect></g></svg></g></svg>