<?xml version="1.0" encoding="UTF-8"?>
<svg id="Layer_1" data-name="Layer 1" xmlns="http://www.w3.org/2000/svg" viewBox="0 0 278.41 295.33">
  <defs>
    <style>
      .cls-1 {
        fill: #fff;
      }

      .cls-2 {
        fill: #6c6a61;
      }

      .cls-3 {
        fill: #bcb9b0;
      }

      .cls-4 {
        fill: #d6d2c9;
      }

      .cls-5 {
        fill: #57544d;
      }
    </style>
  </defs>
  <path class="cls-5" d="M218.06,72.92c-.26-.51-.5-1.02-.72-1.55-5-11.82-.23-27.56-9.27-36.68-2.64-2.67-6.14-4.3-9.11-6.59-4.6-3.54-7.81-8.52-11.62-12.9C177.31,3.64,159.72,.68,145.17,.08c-14.96-.62-29.98,2.57-43.53,8.83-12.79,5.91-15.78,22.7-25.38,32.16-5.66,5.58-13.75,9.39-16.41,16.89-1.91,5.38-.46,11.37-1.51,16.98-1.26,6.77-6.01,12.36-8.29,18.86-3.35,9.58-.66,21,6.61,28.09,16.74,16.32,22.37,43.92,46.03,53.17,8.25,3.23,16.94,2.04,25.21,4.35,6.72,1.88,12.26,6.22,19.51,7.32,5.82,.88,12.14,.06,16.81-3.52,5.39-4.13,7.82-11.21,13.09-15.5,5.97-4.85,14.5-5.29,20.85-9.62,11.17-7.63,11.5-22.83,16.85-34.07,5.57-11.71,19.17-19.89,13.39-34.48-2.4-6.07-7.39-10.8-10.33-16.61Z"/>
  <g>
    <path class="cls-5" d="M278.41,295.01s-31.37,.08-73.04,.16c-19.05,.04-40.26,.07-61.6,.11-4.18,0-8.37,0-12.55,.01-18.72,.02-37.24,.04-54.21,.04-43.25,0-76.39-.07-76.87-.32-1.4-.7,8.41-41.35,17.53-55.38,7.74-11.91,24.51-20.46,36.21-27.7,3.66-2.27,7.38-4.55,11.17-6.77,17.59-10.34,36.56-19.4,57.04-19.67,10.56-.15,21.13,.07,31.69,.36,4.13,.11,12.14-1.23,16,.52,0,0,6.01,2.72,14.87,6.91,8.18,3.86,17.11,9.16,25.64,14.71,13.31,8.63,25.67,17.84,32.72,23.06,21.19,16.79,35.41,63.98,35.41,63.98Z"/>
    <path class="cls-2" d="M210.28,207.98l-4.91,87.19c-19.05,.04-40.26,.07-61.6,.11-4.18,0-8.37,0-12.55,.01-18.72,.02-37.24,.04-54.21,.04l-11.97-90.17c17.59-10.34,36.56-19.4,57.04-19.67,10.56-.15,21.13,.07,31.69,.36,4.13,.11,12.14-1.23,16,.52,0,0,6.01,2.72,14.87,6.91,8.18,3.86,17.11,9.16,25.64,14.71Z"/>
    <path class="cls-5" d="M113.76,178.65s-31.54,11.04-37.33,26.81c-6.83,17.35,6.83,55.73,12.62,62.56,0,0,4.21-15.77,12.62-16.3s19.98,11.04,37.85,10.51c17.87-.53,36.57-16.41,41.01-14.19,6.31,3.15,4.73,19.98,6.83,19.45s19.98-36.8,12.62-55.2c-7.36-18.4-39.43-33.12-43.11-33.12s-43.11-.53-43.11-.53Z"/>
    <path class="cls-1" d="M186.31,211.77c1.05,9.46-32.43,51.52-46.79,50.47-10.57-.77-47.84-41.01-47.31-47.84,.53-6.83,12.62-16.82,15.77-19.45,.33-1.97,1.15-11.23,1.08-23.35-.07-13.84-.27-27.99-.27-27.99l60.98-6.31-1.96,39.47-.85,17.31s18.52,10.21,19.35,17.7Z"/>
    <path class="cls-4" d="M169.77,137.3l-1.96,39.47c-7.95,9.5-18.65,16.31-29.24,15.02-14.83-1.8-24.33-14.65-29.51-20.2-.07-13.84-.27-27.99-.27-27.99l60.98-6.31Z"/>
    <g>
      <g>
        <path class="cls-1" d="M190.98,97.84c-.4-1.06,8.3-17.27,18.76-15.15,10.46,2.11,7.74,33.5-8.9,42.93-16.33,9.26-20.53,2.1-20.53,2.1l10.66-29.87Z"/>
        <g>
          <path class="cls-4" d="M192.3,99.84s13.23-11.86,15.98-10.04c2.75,1.82,3.79,13.12,2.4,13.3-1.39,.18-5.86-6.02-5.86-6.02l-13.21,10.32,.69-7.57Z"/>
          <path class="cls-3" d="M192,103.21s8.36-3.06,10.61,6.48c2.25,9.54-8.63,12.22-12.58,11.37,1.09-7.31,1.97-17.85,1.97-17.85Z"/>
        </g>
      </g>
      <g>
        <path class="cls-1" d="M89.05,97.84c.4-1.06-8.3-17.27-18.76-15.15-10.46,2.11-7.74,33.5,8.9,42.93,16.33,9.26,20.53,2.1,20.53,2.1l-10.66-29.87Z"/>
        <g>
          <path class="cls-4" d="M87.74,99.84s-13.23-11.86-15.98-10.04-3.79,13.12-2.4,13.3,5.86-6.02,5.86-6.02l13.21,10.32-.69-7.57Z"/>
          <path class="cls-3" d="M88.03,103.21s-8.36-3.06-10.61,6.48c-2.25,9.54,8.63,12.22,12.58,11.37-1.09-7.31-1.97-17.85-1.97-17.85Z"/>
        </g>
      </g>
      <path class="cls-1" d="M192.68,111.24c-1.04,4.56-2.36,9.48-3.98,14.84-1.16,3.79-2.32,7.25-3.51,10.45-11.87,31.76-25.94,35.81-46.96,35.81-19.68,0-36.65-16.23-45.85-42.56h0c-.03-.11-.06-.2-.11-.3-2.23-6.4-3.98-13.42-5.21-20.92-4.91-60.28,24.69-88.33,49.76-91.12,12.62-1.41,44.1,8.14,51.88,32.24,6.03,18.72,10.41,33.25,3.98,61.57Z"/>
      <path class="cls-4" d="M192.68,111.24c-.42,.76-.86,1.49-1.3,2.22-5.26-14.02-5.96-14.37-5.96-20.68s-3.86-8.41-10.86-12.62c-7.01-4.21-10.87-18.22-10.87-18.22,0,0-1.75,7.36-5.6,13.32-3.86,5.95-16.48,4.55-21.73,8.05-5.26,3.51-7.71,13.32-11.57,16.48-3.85,3.15-13.67,2.1-22.77,7.71-5.92,3.65-8.59,14.69-9.74,21.97-2.23-6.4-3.98-13.42-5.21-20.92-4.91-60.28,24.69-88.33,49.76-91.12,12.62-1.41,44.1,8.14,51.88,32.24,6.03,18.72,10.41,33.25,3.98,61.57Z"/>
    </g>
    <path class="cls-5" d="M167.38,43.18c.19-1.32,.46-2.63,.8-3.92-2.45,5.16-4.91,10.32-7.36,15.48-3.67,7.72-8.13,16.17-16.23,18.9-3.78,1.28-8.01,1.13-11.59,2.89-8.11,3.98-10.11,16.1-18.65,19.04-3.71,1.28-7.78,.45-11.68,.85-13.36,1.36-12.48,15.64-13.17,25.79-18.22-20.33-17.45-52.22-13.24-67.64,7.57-27.77,23.12-40.52,41.71-48.72,13.92-6.13,41.63-3.33,53.72,10.86,17.35-2.63,27.86,10.51,33.12,19.98,5.82,10.47,5.98,25.21,5.04,36.75-.78,9.58-2.94,19.22-6.66,28.1-1.53,3.65-3.5,7.38-5.39,10.87-1.39,2.57-7.07,7.01-7.56,9.35,.95-4.58,1.89-9.34,.81-13.89-.45-1.9-1.25-3.72-1.59-5.65-1.01-5.6,1.86-11.64-.29-16.91-1.63-3.99-5.66-6.34-9.01-9.06-9.62-7.8-14.54-20.89-12.79-33.11Z"/>
  </g>
</svg>