<?xml version="1.0" encoding="utf-8"?>
<!-- Generator: Adobe Illustrator 27.0.0, SVG Export Plug-In . SVG Version: 6.00 Build 0)  -->
<svg version="1.1" id="Layer_1" xmlns="http://www.w3.org/2000/svg" xmlns:xlink="http://www.w3.org/1999/xlink" x="0px" y="0px"
	 viewBox="0 0 800 800" style="enable-background:new 0 0 800 800;" xml:space="preserve">
<path d="M400,92.4c-184.1,0-333.3,117.7-333.3,262.8c0,93.8,62.4,176.2,156.2,222.7c-5.1,17.6-32.8,113.3-33.9,120.8
	c0,0-0.7,5.6,3,7.8c2.5,1.3,5.4,1.4,8,0.5c10.5-1.4,121.6-79.5,140.9-93.1c19.6,2.8,39.3,4.1,59.1,4.1
	c184.1,0,333.3-117.7,333.3-262.8S584.1,92.4,400,92.4z M234.9,428.6c-0.6,10.6-9.7,18.7-20.4,18.1c-9.7-0.6-17.5-8.4-18.1-18.1
	V314.4h-30c-10.4,0-18.8-8.4-18.8-18.8c0-10.4,8.4-18.8,18.8-18.8h98.5c10.4,0,18.8,8.4,18.8,18.8c0,10.4-8.4,18.8-18.8,18.8l0,0
	h-30V428.6z M396.6,444.1c-3.8,1.8-8,2.7-12.2,2.6c-6.6,0.8-13-2.6-16-8.5l-9.5-24.9h-58.6l-9.5,24.9c-3,5.9-9.4,9.3-16,8.5
	c-4.2,0-8.4-0.9-12.2-2.6c-5.3-2.5-10.4-9.2-4.6-27.3l46-121.1c4.1-14.2,18.8-22.3,33-18.3c8.8,2.5,15.7,9.4,18.3,18.3l46,121
	c5.9,18.2,0.8,25-4.4,27.4H396.6z M493.8,444.1h-61.7c-10,0.2-18.2-7.7-18.4-17.6V295.9c0-10.8,8.8-19.6,19.7-19.6
	c10.8,0,19.6,8.8,19.6,19.6v113h40.9c9.7,0,17.6,7.9,17.6,17.6s-7.9,17.6-17.6,17.6c0,0,0,0,0,0V444.1z M636.8,442.3
	c-3.3,2.5-7.4,3.9-11.6,3.9c-6,0-11.7-2.8-15.4-7.6l-45.1-59.8l-6.7,6.7v42c0,10.6-8.6,19.2-19.2,19.2s-19.2-8.6-19.2-19.2V295.9
	c0-10.6,8.6-19.2,19.2-19.2s19.2,8.6,19.2,19.2v41.3l53.6-53.7c2.8-2.8,6.7-4.3,10.7-4.3c9.9,0.3,18.1,8,18.9,17.9
	c0.3,4.3-1.2,8.6-4.2,11.7l-43.8,43.8l47.3,62.7C647.1,423.9,645.4,436,636.8,442.3L636.8,442.3z M329.5,324.7l19.2,54.6h-38.4
	L329.5,324.7z"/>
</svg>
