<?xml version="1.0" encoding="utf-8"?>
<!-- Generator: Adobe Illustrator 27.0.0, SVG Export Plug-In . SVG Version: 6.00 Build 0)  -->
<svg version="1.1" xmlns="http://www.w3.org/2000/svg" xmlns:xlink="http://www.w3.org/1999/xlink" x="0px" y="0px"
	 viewBox="0 0 800 800" style="enable-background:new 0 0 800 800;" xml:space="preserve">
<style type="text/css">
	.st0{fill:#FFFFFF;}
</style>
<g id="Layer_2">
	<rect x="80" y="323" class="st0" width="175" height="278.8"/>
	<rect x="608" y="413" class="st0" width="119" height="197.1"/>
	<rect x="196.1" y="217.4" class="st0" width="443.4" height="248.3"/>
</g>
<g id="Capa_1">
	<g id="SVGRepo_bgCarrier">
	</g>
	<g id="SVGRepo_tracerCarrier">
	</g>
	<g id="SVGRepo_iconCarrier">
		<g>
			<g id="Layer_20_51_">
				<g>
					<polygon points="277.2,514.7 370.2,514.7 370.2,536.1 277.2,536.1 277.2,553.8 569.6,553.8 569.6,536.1 461.2,536.1 
						461.2,514.7 581.8,514.7 581.8,465.7 277.2,465.7 					"/>
					<polygon points="196.2,220 639.5,220 639.5,397.2 677.5,397.2 677.5,182 158.2,182 158.2,300.7 196.2,300.7 					"/>
					<path d="M66.6,610.1h198.3V312.6H66.6V610.1z M170,595.1c-5.3,0-9.6-4.3-9.6-9.5c0-5.3,4.3-9.5,9.6-9.5c5.3,0,9.5,4.3,9.5,9.5
						S175.3,595.1,170,595.1z M95.3,341.3h141l0,219.5h-141V341.3z"/>
					<path d="M595.3,408.6V618h138.1V408.6H595.3z M667.1,417.3c1.7,0,3,1.4,3,3c0,1.7-1.4,3-3,3c-1.7,0-3-1.4-3-3
						S665.4,417.3,667.1,417.3z M649.2,427.3H685v2.9h-35.8V427.3z M665.9,609c-4,0-7.2-3.2-7.2-7.2c0-4,3.2-7.2,7.2-7.2
						c3.9,0,7.2,3.2,7.2,7.2C673.1,605.8,669.9,609,665.9,609z M713.4,584.3c-32.3,0.2-82.1,0.3-98.2,0.2v-144l98.2,0V584.3z"/>
				</g>
			</g>
		</g>
	</g>
</g>
</svg>
