<?xml version="1.0" encoding="utf-8"?>
<!-- Generator: Adobe Illustrator 27.0.0, SVG Export Plug-In . SVG Version: 6.00 Build 0)  -->
<svg version="1.1" xmlns="http://www.w3.org/2000/svg" xmlns:xlink="http://www.w3.org/1999/xlink" x="0px" y="0px"
	 viewBox="0 0 800 800" style="enable-background:new 0 0 800 800;" xml:space="preserve">
<style type="text/css">
	.st0{fill:#FFFFFF;}
	.st1{fill:#CC6699;}
</style>
<g id="Layer_2">
	<ellipse class="st0" cx="390.5" cy="395" rx="315.5" ry="299"/>
</g>
<g id="Layer_1">
	<g id="SVGRepo_bgCarrier">
	</g>
	<g id="SVGRepo_tracerCarrier">
	</g>
	<g id="SVGRepo_iconCarrier">
		<path class="st1" d="M400,66.7c184.1,0,333.3,149.2,333.3,333.3S584.1,733.3,400,733.3S66.7,584.1,66.7,400S215.9,66.7,400,66.7z
			 M333.7,511c4.9,18,4.4,34.7-0.6,49.8l-1.8,5c-0.6,1.7-1.5,3.4-2.2,4.9c-3.9,8.1-9.1,15.6-15.4,22.6
			c-19.4,21.1-46.4,29.1-58.1,22.4c-12.6-7.3-6.3-37.1,16.2-60.9c24.2-25.5,58.9-41.9,58.9-41.9v-0.1L333.7,511z M609.1,209.4
			c-15.1-59.2-113.3-78.7-206.2-45.7c-55.3,19.6-115.1,50.5-158.2,90.7c-51.2,47.8-59.4,89.5-56,106.9
			c11.9,61.4,96,101.7,130.6,131.4v0.2c-10.2,5-84.9,42.4-102.3,81.3c-18.8,40.8,2.9,70,17,73.7c43.8,12.1,88.8-10,113-45.8
			c23.3-35,21.2-79.9,11.2-102.1c13.8-3.7,30.1-5.4,50.9-2.9c58.4,6.7,70,43.4,67.5,58.4c-2.5,15-14.6,23.8-18.8,26.3
			c-4.1,2.5-5.4,3.2-5,5c0.4,2.5,2.5,2.5,5.9,2.1c4.6-0.8,30.4-12.5,31.7-40.8c1.2-35.9-33-75.8-93.8-75.1
			c-25.1,0.6-40.9,2.6-52.1,7.2c-0.9-1.2-1.8-2.1-2.9-2.9c-37.5-40.4-107.1-68.7-104.2-122.5c0.9-19.5,7.9-71.2,133.4-133.7
			c102.9-51.3,185-37.1,199.1-5.9c20.4,44.6-43.7,127.5-150.8,139.5c-40.8,4.6-62.1-11.2-67.5-17c-5.9-6.3-6.6-6.7-8.8-5.4
			c-3.2,1.6-1.2,7.1,0,10.4c3.4,8.3,16.3,22.9,38.9,30.4c19.5,6.3,67.5,10,125-12.5c64.6-24.9,114.9-94.5,100.4-152.9L609.1,209.4z"
			/>
	</g>
</g>
</svg>
