<svg xmlns="http://www.w3.org/2000/svg" viewBox="0 0 32 40" x="0px" y="0px"><defs><style>
      .cls-1 {
        stroke-width: 0px;
      }
    </style></defs><path class="cls-1" d="m31,18c.55,0,1-.45,1-1V3c0-1.65-1.35-3-3-3H3C1.35,0,0,1.35,0,3v20c0,1.65,1.35,3,3,3h7.91c-.33,2.03-1.37,3.04-2.33,4h-1.59c-.55,0-1,.45-1,1s.45,1,1,1h18.2c.55,0,1-.45,1-1s-.45-1-1-1h-1.79c-1.05-1.05-2.01-2.01-2.33-4h7.91c1.65,0,3-1.35,3-3v-2c0-.55-.45-1-1-1H2V3c0-.55.45-1,1-1h26c.55,0,1,.45,1,1v14c0,.55.45,1,1,1Zm-10.31,12h-9.37c.89-1.17,1.43-2.54,1.61-4h6.16c.18,1.46.71,2.83,1.61,4Zm9.31-8v1c0,.55-.45,1-1,1H3c-.55,0-1-.45-1-1v-1h28Z"/><path class="cls-1" d="m6,8c-.55,0-1-.45-1-1v-2c0-.55.45-1,1-1h2c.55,0,1,.45,1,1s-.45,1-1,1h-1v1c0,.55-.45,1-1,1Z"/><path class="cls-1" d="m19,9c-.55,0-1-.45-1-1h-4c0,.55-.45,1-1,1s-1-.45-1-1v-1c0-.55.45-1,1-1h6c.55,0,1,.45,1,1v1c0,.55-.45,1-1,1Z"/><path class="cls-1" d="m16,16c-.55,0-1-.45-1-1V7c0-.55.45-1,1-1s1,.45,1,1v8c0,.55-.45,1-1,1Z"/><path class="cls-1" d="m8,18h-2c-.55,0-1-.45-1-1v-2c0-.55.45-1,1-1s1,.45,1,1v1h1c.55,0,1,.45,1,1s-.45,1-1,1Z"/><path class="cls-1" d="m26,8c-.55,0-1-.45-1-1v-1h-1c-.55,0-1-.45-1-1s.45-1,1-1h2c.55,0,1,.45,1,1v2c0,.55-.45,1-1,1Z"/><path class="cls-1" d="m26,18h-2c-.55,0-1-.45-1-1s.45-1,1-1h1v-1c0-.55.45-1,1-1s1,.45,1,1v2c0,.55-.45,1-1,1Z"/><path class="cls-1" d="m18,16h-4c-.55,0-1-.45-1-1s.45-1,1-1h4c.55,0,1,.45,1,1s-.45,1-1,1Z"/><text x="0" y="47" fill="#000000" font-size="5px" font-weight="bold" font-family="'Helvetica Neue', Helvetica, Arial-Unicode, Arial, Sans-serif">Created by tezar tantular</text><text x="0" y="52" fill="#000000" font-size="5px" font-weight="bold" font-family="'Helvetica Neue', Helvetica, Arial-Unicode, Arial, Sans-serif">from the Noun Project</text></svg>