<?xml version="1.0" encoding="utf-8"?>
<!-- Generator: Adobe Illustrator 27.0.0, SVG Export Plug-In . SVG Version: 6.00 Build 0)  -->
<svg version="1.1" id="Layer_1" xmlns="http://www.w3.org/2000/svg" xmlns:xlink="http://www.w3.org/1999/xlink" x="0px" y="0px"
	 viewBox="0 0 800 800" style="enable-background:new 0 0 800 800;" xml:space="preserve">
<style type="text/css">
	.st0{fill-rule:evenodd;clip-rule:evenodd;fill:#080341;}
</style>
<g id="SVGRepo_bgCarrier">
</g>
<g id="SVGRepo_tracerCarrier">
</g>
<g id="SVGRepo_iconCarrier">
	<path class="st0" d="M340,579.1c4.8,9,9.6,17,14.1,24.2c-48.6-10.9-90.8-38.9-120-77.2c19.3-10.8,43.9-22.1,73.6-30.3
		C316.1,528.8,328,556.7,340,579.1z M376.7,559.5c-10.4-19.4-20.7-43.6-28.2-72.4c16.1-2.4,33.3-3.8,51.5-3.8
		c18.2,0,35.4,1.4,51.5,3.8c-7.5,28.7-17.9,53-28.2,72.4c-8.3,15.6-16.6,28-23.3,37.1C393.3,587.5,385,575,376.7,559.5z M337.5,400
		c0,16.2,1.1,31.6,3,46.2c18.6-2.8,38.4-4.5,59.5-4.5c21.1,0,40.9,1.6,59.5,4.5c1.9-14.5,3-29.9,3-46.2c0-16.2-1.1-31.6-3-46.2
		c-18.6,2.8-38.4,4.5-59.5,4.5c-21.1,0-40.9-1.6-59.5-4.5C338.6,368.4,337.5,383.8,337.5,400z M299.6,345.2
		c-2.4,17.2-3.8,35.5-3.8,54.8c0,19.3,1.4,37.6,3.8,54.8c-35.4,9.5-64.7,22.9-87.3,35.8c-13.2-27.4-20.6-58.1-20.6-90.5
		s7.4-63.2,20.6-90.5C235,322.4,264.3,335.7,299.6,345.2z M348.5,312.9c16.1,2.4,33.3,3.8,51.5,3.8c18.2,0,35.4-1.4,51.5-3.8
		c-7.5-28.7-17.9-53-28.2-72.4c-8.3-15.6-16.6-28-23.3-37.1c-6.7,9.1-15,21.5-23.3,37.1C366.4,259.9,356,284.2,348.5,312.9z
		 M500.4,345.2c2.4,17.2,3.8,35.5,3.8,54.8c0,19.3-1.4,37.6-3.8,54.8c35.4,9.5,64.7,22.9,87.3,35.8c13.2-27.4,20.6-58.1,20.6-90.5
		s-7.4-63.2-20.6-90.5C565,322.4,535.7,335.7,500.4,345.2z M565.9,273.9c-19.3,10.8-43.9,22.1-73.6,30.3
		c-8.4-33.1-20.3-61-32.2-83.3c-4.8-9-9.6-17-14.1-24.2C494.5,207.7,536.7,235.6,565.9,273.9z M307.7,304.3
		c-29.7-8.2-54.3-19.5-73.6-30.3c29.2-38.3,71.4-66.3,120-77.2c-4.6,7.2-9.4,15.2-14.1,24.2C328,243.3,316.1,271.2,307.7,304.3z
		 M492.3,495.7c-8.4,33.1-20.3,61-32.2,83.3c-4.8,9-9.6,17-14.1,24.2c48.6-10.9,90.8-38.9,120-77.2
		C546.6,515.2,521.9,504,492.3,495.7z M400,650c138.1,0,250-111.9,250-250c0-138.1-111.9-250-250-250c-138.1,0-250,111.9-250,250
		C150,538.1,261.9,650,400,650z"/>
</g>
</svg>
