<?xml version="1.0" encoding="utf-8"?>
<!-- Generator: Adobe Illustrator 27.0.0, SVG Export Plug-In . SVG Version: 6.00 Build 0)  -->
<svg version="1.1" id="Capa_1" xmlns="http://www.w3.org/2000/svg" xmlns:xlink="http://www.w3.org/1999/xlink" x="0px" y="0px"
	 viewBox="0 0 800 800" style="enable-background:new 0 0 800 800;" xml:space="preserve">
<g id="SVGRepo_bgCarrier">
</g>
<g id="SVGRepo_tracerCarrier">
</g>
<g id="SVGRepo_iconCarrier">
	<path id="XMLID_1165_" d="M378.9,589.2H112.2V88.9h379.6v109.3c0,6.3,5.1,11.4,11.4,11.4h109.3v146c0,6.3,5.1,11.4,11.4,11.4
		c6.3,0,11.4-5.1,11.4-11.4V198.2c0-1.6-0.3-3.1-0.9-4.4c-0.5-1.2-1.3-2.4-2.2-3.4c0,0,0,0,0,0c0,0,0,0,0,0
		c-0.1-0.1-0.1-0.2-0.2-0.2L511.2,69.4c-1.1-1.1-2.4-2-3.8-2.5c-1.2-0.5-2.5-0.8-3.9-0.8c0,0,0,0,0,0c0,0,0,0,0,0
		c-0.1,0-0.2,0-0.4,0H100.8c-6.3,0-11.4,5.1-11.4,11.4v523.1c0,6.3,5.1,11.4,11.4,11.4h278.1c6.3,0,11.4-5.1,11.4-11.4
		S385.2,589.2,378.9,589.2z M514.6,105l81.8,81.8h-81.8V105z M734.2,483.4c-0.3-0.8-0.7-1.5-1.2-2.1
		c-29.1-49.3-82.7-82.4-143.9-82.4c0,0,0,0,0,0c-61.2,0-114.9,33.1-143.9,82.4c-0.5,0.7-0.9,1.4-1.2,2.1
		c-13.8,24.3-21.7,52.3-21.8,82.2c0,0.1,0,0.1,0,0.2s0,0.1,0,0.2c0,29.9,7.9,57.9,21.8,82.2c0.3,0.8,0.8,1.5,1.2,2.1
		c29.1,49.3,82.7,82.4,143.9,82.4c0,0,0,0,0,0s0,0,0,0c61.2,0,114.9-33.2,143.9-82.4c0.5-0.7,0.9-1.4,1.2-2.1
		c13.9-24.3,21.8-52.5,21.8-82.4S748.1,507.7,734.2,483.4z M702.2,476.6h-55.6c-2.1-8.8-4.5-17-7.3-24.7c-3.6-10-7.4-18.3-11.4-25
		C657.6,435.3,683.5,453,702.2,476.6z M544.7,554.4c0.5-20.3,2.5-38.7,5.4-55H628c2.9,16.2,4.8,34.7,5.4,55H544.7z M633.4,577.2
		c-0.5,20.3-2.5,38.7-5.4,55h-77.9c-2.9-16.2-4.8-34.7-5.4-55H633.4z M589,421.6c10.8,0,24.6,20,33.9,55h-67.8
		C564.4,441.7,578.2,421.6,589,421.6z M550.2,427c-3.9,6.7-7.8,14.9-11.4,25c-2.7,7.6-5.2,15.9-7.3,24.7h-55.6
		C494.5,453,520.4,435.3,550.2,427z M461.1,499.4h65.8c-2.8,17.2-4.5,35.8-5,55h-76.5C446.9,534.7,452.4,516.1,461.1,499.4z
		 M461.1,632.1c-8.7-16.7-14.2-35.3-15.8-55h76.5c0.5,19.2,2.2,37.7,5,55H461.1z M475.9,655h55.6c2.1,8.8,4.5,17,7.3,24.7
		c3.6,10,7.4,18.3,11.4,25C520.4,696.3,494.5,678.6,475.9,655z M589,709.9c-10.8,0-24.6-20-33.9-55H623
		C613.6,689.9,599.9,709.9,589,709.9z M627.9,704.6c3.9-6.7,7.8-14.9,11.4-25c2.7-7.6,5.2-15.9,7.3-24.7h55.6
		C683.5,678.6,657.6,696.3,627.9,704.6z M717,632.1h-65.8c2.8-17.2,4.5-35.8,5-55h76.5C731.2,596.9,725.7,615.5,717,632.1z
		 M656.2,554.4c-0.5-19.2-2.2-37.7-5-55H717c8.7,16.7,14.2,35.3,15.8,55H656.2z M322.1,360.2l23.6-23.6l89.5,89.5
		c4.5,4.5,11.7,4.5,16.1,0c4.5-4.5,4.5-11.7,0-16.1l-89.5-89.5l23.6-23.6l95.3,95.3c4.5,4.5,11.7,4.5,16.1,0
		c4.5-4.5,4.5-11.7,0-16.1L393.8,272.8c-1.1-1.2-2.6-2.2-4.2-2.8l-63.8-24.4c0,0-0.1,0-0.1-0.1l-64.7-24.7
		c-2.3-0.9-9.1-0.8-12.1,2.6c-3,3.4-4.2,7.9-2.6,12.1l49.1,128.5c0.2,0.7,0.6,1.3,0.9,2c0.5,0.9,1.2,1.7,1.9,2.4L400.7,471
		c2.2,2.2,5.1,3.3,8.1,3.3s5.8-1.1,8.1-3.3c4.5-4.5,4.5-11.7,0-16.1L322.1,360.2z M287.2,279.3l-10.7-28l26.9,10.3
		C298.5,267.9,293.1,273.8,287.2,279.3z M295.9,302c11.3-9.3,21.2-20,29.5-32l39.5,15.1l-27.2,27.2c-0.1,0.1-0.1,0.1-0.2,0.2
		c-0.1,0.1-0.1,0.1-0.2,0.2l-27.2,27.2L295.9,302z M538.3,240.9c6.3,0,11.4,5.1,11.4,11.4v104.3c0,6.3-5.1,11.4-11.4,11.4
		s-11.4-5.1-11.4-11.4V252.3C526.9,246,532,240.9,538.3,240.9z M391.3,515.1c0,6.3-5.1,11.4-11.4,11.4H186.3
		c-6.3,0-11.4-5.1-11.4-11.4V163c0-6.3,5.1-11.4,11.4-11.4H449c6.3,0,11.4,5.1,11.4,11.4s-5.1,11.4-11.4,11.4H197.7v329.2h182.2
		C386.2,503.7,391.3,508.8,391.3,515.1z"/>
</g>
</svg>
