<svg xmlns="http://www.w3.org/2000/svg" data-name="Layer 1" viewBox="0 0 100 125" x="0px" y="0px"><defs><style>.cls-1{fill-rule:evenodd;}</style></defs><title>a</title><path class="cls-1" d="M7.924,89.555A2.929,2.929,0,0,1,5,86.631V13.369a2.929,2.929,0,0,1,2.924-2.924H92.076A2.929,2.929,0,0,1,95,13.369V86.631a2.929,2.929,0,0,1-2.924,2.924Zm84.349-58.5H7.727V86.631a.2.2,0,0,0,.2.2H92.076a.2.2,0,0,0,.138-.058.2.2,0,0,0,.059-.138V31.058ZM7.727,28.331H92.273V13.369a.2.2,0,0,0-.2-.2H7.924a.2.2,0,0,0-.2.2V28.331ZM13.9,22.365H14.1a1.364,1.364,0,0,0,0-2.727H13.9a1.364,1.364,0,1,0,0,2.727Zm20.676,0H86.1a1.364,1.364,0,1,0,0-2.727H34.58a1.364,1.364,0,0,0,0,2.727Zm-14.376,0H20.4a1.364,1.364,0,1,0,0-2.727H20.2a1.364,1.364,0,1,0,0,2.727Zm6.3,0H26.7a1.364,1.364,0,1,0,0-2.727H26.5a1.364,1.364,0,1,0,0,2.727ZM52.045,38.426a2.892,2.892,0,1,0,.847,2.045,2.883,2.883,0,0,0-.847-2.045ZM50,34.852A5.62,5.62,0,1,0,53.973,36.5,5.6,5.6,0,0,0,50,34.852Zm6.717,18.114h8.545a.981.981,0,0,0,.727-.36,1.753,1.753,0,0,0,0-2.2.981.981,0,0,0-.727-.36H33.9a.981.981,0,0,0-.727.36,1.753,1.753,0,0,0,0,2.2.981.981,0,0,0,.727.36h9.439a1.364,1.364,0,0,1,1.364,1.364V78.639A1.354,1.354,0,0,0,45.751,79.9a3.156,3.156,0,0,0,1.872,0,1.354,1.354,0,0,0,1.044-1.261V65.994a1.364,1.364,0,1,1,2.727,0V78.639A1.354,1.354,0,0,0,52.438,79.9a3.156,3.156,0,0,0,1.872,0,1.354,1.354,0,0,0,1.044-1.261V54.33a1.364,1.364,0,0,1,1.363-1.364ZM41.979,55.694V78.639a3.942,3.942,0,0,0,2.909,3.839,5.706,5.706,0,0,0,3.6,0,4.775,4.775,0,0,0,1.544-.844,4.78,4.78,0,0,0,1.545.844,5.706,5.706,0,0,0,3.6,0,3.942,3.942,0,0,0,2.908-3.839V55.694h7.181a3.679,3.679,0,0,0,2.772-1.3,4.434,4.434,0,0,0,0-5.775,3.682,3.682,0,0,0-2.772-1.3H33.9a3.682,3.682,0,0,0-2.772,1.3,4.434,4.434,0,0,0,0,5.775,3.679,3.679,0,0,0,2.772,1.3Z"/><text x="0" y="115" fill="#000000" font-size="5px" font-weight="bold" font-family="'Helvetica Neue', Helvetica, Arial-Unicode, Arial, Sans-serif">Created by Happy Girl</text><text x="0" y="120" fill="#000000" font-size="5px" font-weight="bold" font-family="'Helvetica Neue', Helvetica, Arial-Unicode, Arial, Sans-serif">from the Noun Project</text></svg>