<svg xmlns="http://www.w3.org/2000/svg" xmlns:xlink="http://www.w3.org/1999/xlink" version="1.1" x="0px" y="0px" viewBox="0 0 20 25" enable-background="new 0 0 20 20" xml:space="preserve"><g><path d="M2,6h14v1h2V1c0-0.6-0.4-1-1-1H1C0.5,0,0,0.4,0,1v14c0,0.6,0.4,1,1,1h8v-2H2V6z M7,2c0.6,0,1,0.5,1,1c0,0.6-0.4,1-1,1   S6,3.6,6,3C6,2.4,6.5,2,7,2z M3,2c0.5,0,1,0.5,1,1c0,0.6-0.5,1-1,1S2,3.6,2,3C2,2.4,2.5,2,3,2z"/><path d="M19,11.5h-0.1c-0.1-0.5-0.3-1-0.6-1.4l0.1-0.1c0.4-0.4,0.4-1,0-1.4v0c-0.4-0.4-1-0.4-1.4,0l-0.1,0.1   c-0.4-0.3-0.9-0.5-1.4-0.6V8c0-0.6-0.4-1-1-1c-0.6,0-1,0.4-1,1v0.1c-0.5,0.1-1,0.3-1.4,0.6L12,8.6c-0.4-0.4-1-0.4-1.4,0l0,0   c-0.4,0.4-0.4,1,0,1.4l0.1,0.1c-0.3,0.4-0.5,0.9-0.6,1.4H10c-0.6,0-1,0.4-1,1c0,0.6,0.4,1,1,1h0.1c0.1,0.5,0.3,1,0.6,1.4L10.6,15   c-0.4,0.4-0.4,1,0,1.4c0.4,0.4,1,0.4,1.4,0l0.1-0.1c0.3,0.2,0.6,0.3,0.9,0.4h0V20l1.5-1l1.5,1v-3.3c0,0,0.6-0.3,0.9-0.4l0.1,0.1   c0.4,0.4,1,0.4,1.4,0c0.4-0.4,0.4-1,0-1.4l-0.1-0.1c0.3-0.4,0.5-0.9,0.6-1.4H19c0.6,0,1-0.4,1-1C20,11.9,19.5,11.5,19,11.5z    M14.5,15c-1.4,0-2.5-1.1-2.5-2.5s1.1-2.5,2.5-2.5c1.4,0,2.5,1.1,2.5,2.5S15.9,15,14.5,15z"/></g><text x="0" y="35" fill="#000000" font-size="5px" font-weight="bold" font-family="'Helvetica Neue', Helvetica, Arial-Unicode, Arial, Sans-serif">Created by ProSymbols</text><text x="0" y="40" fill="#000000" font-size="5px" font-weight="bold" font-family="'Helvetica Neue', Helvetica, Arial-Unicode, Arial, Sans-serif">from the Noun Project</text></svg>