<svg xmlns="http://www.w3.org/2000/svg" xmlns:xlink="http://www.w3.org/1999/xlink" version="1.1" x="0px" y="0px" viewBox="0 0 96 120" style="enable-background:new 0 0 96 96;" xml:space="preserve"><path d="M35.301,8.715c0-0.846,0.69-1.535,1.536-1.535c0.846,0,1.535,0.69,1.535,1.535c0,0.846-0.69,1.535-1.535,1.535  C35.991,10.25,35.301,9.56,35.301,8.715z M27.446,26.928l-5.445,4.942l-1.679-1.679c-0.573-0.573-1.503-0.573-2.076,0  c-0.573,0.573-0.573,1.503,0,2.076l2.668,2.669c0.286,0.286,0.662,0.43,1.038,0.43c0.353,0,0.706-0.126,0.986-0.381l6.481-5.882  c0.601-0.545,0.646-1.473,0.101-2.074C28.975,26.428,28.046,26.383,27.446,26.928z M34.967,29.343H54.39  c0.811,0,1.468-0.657,1.468-1.468s-0.657-1.468-1.468-1.468H34.967c-0.811,0-1.468,0.657-1.468,1.468S34.156,29.343,34.967,29.343z   M54.39,32.288H34.967c-0.811,0-1.468,0.657-1.468,1.468c0,0.811,0.657,1.468,1.468,1.468H54.39c0.811,0,1.468-0.657,1.468-1.468  C55.858,32.946,55.201,32.288,54.39,32.288z M27.446,42.781l-5.445,4.942l-1.679-1.679c-0.573-0.573-1.503-0.573-2.076,0  c-0.573,0.573-0.573,1.503,0,2.076l2.668,2.669c0.286,0.286,0.662,0.43,1.038,0.43c0.353,0,0.706-0.126,0.986-0.381l6.481-5.882  c0.601-0.545,0.646-1.473,0.101-2.074C28.975,42.281,28.046,42.236,27.446,42.781z M27.446,58.774l-5.445,4.942l-1.679-1.679  c-0.573-0.573-1.503-0.573-2.076,0c-0.573,0.573-0.573,1.503,0,2.076l2.668,2.668c0.286,0.286,0.662,0.43,1.038,0.43  c0.353,0,0.706-0.126,0.986-0.381l6.481-5.882c0.601-0.545,0.646-1.473,0.101-2.074C28.975,58.274,28.046,58.23,27.446,58.774z   M88.817,64.091c-0.047,0.264,0.06,0.728,0.162,1.177c0.186,0.814,0.397,1.737,0.055,2.674c-0.344,0.943-1.104,1.516-1.774,2.022  c-0.348,0.262-0.741,0.56-0.871,0.784c-0.13,0.226-0.192,0.717-0.246,1.151c-0.104,0.832-0.222,1.775-0.864,2.541  c-0.141,0.168-0.295,0.312-0.458,0.438l4.237,9.838c0.216,0.502,0.135,1.083-0.21,1.507c-0.345,0.424-0.897,0.622-1.433,0.512  l-5.908-1.21l-3.18,5.124c-0.269,0.433-0.742,0.694-1.247,0.694c-0.036,0-0.073-0.001-0.11-0.004  c-0.545-0.041-1.023-0.381-1.239-0.883l-3.696-8.581c-0.831,0.02-1.594-0.301-2.224-0.568c-0.394-0.167-0.841-0.356-1.089-0.356  c0,0,0,0-0.001,0c-0.265,0-0.726,0.194-1.132,0.366c-0.289,0.122-0.594,0.249-0.913,0.352l-5.119,10.995  c-0.231,0.496-0.718,0.822-1.265,0.847c-0.022,0.001-0.044,0.001-0.067,0.001c-0.521,0-1.006-0.277-1.269-0.73l-3.03-5.214  l-5.941,1.038c-0.539,0.095-1.085-0.119-1.418-0.553c-0.333-0.434-0.396-1.017-0.166-1.513l2.307-4.956H10.545  c-2.692,0-4.883-2.19-4.883-4.883V13.873c0-2.692,2.19-4.883,4.883-4.883h11.678V8.395c0-0.811,0.657-1.468,1.468-1.468h6.445  c1.119-2.663,3.729-4.439,6.701-4.439c2.972,0,5.582,1.776,6.701,4.439h6.445c0.811,0,1.468,0.657,1.468,1.468v0.596h11.678  c2.692,0,4.883,2.19,4.883,4.883v26.071c0.276,0.11,0.54,0.199,0.709,0.199c0,0,0,0,0.001,0c0.265,0,0.726-0.194,1.132-0.366  c0.771-0.325,1.645-0.694,2.622-0.521c0.993,0.175,1.722,0.854,2.308,1.4c0.317,0.295,0.676,0.63,0.916,0.717  c0.247,0.09,0.744,0.066,1.181,0.044c0.836-0.042,1.784-0.088,2.648,0.411c0.866,0.501,1.299,1.346,1.681,2.093  c0.199,0.389,0.425,0.829,0.624,0.997c0.198,0.166,0.67,0.31,1.086,0.438c0.803,0.246,1.713,0.526,2.36,1.294  c0.642,0.764,0.76,1.703,0.863,2.532c0.054,0.435,0.116,0.929,0.25,1.161c0.126,0.218,0.515,0.512,0.859,0.772  c0.64,0.484,1.437,1.086,1.783,2.039c0.337,0.931,0.127,1.847-0.059,2.655c-0.104,0.453-0.212,0.922-0.164,1.195  c0.048,0.273,0.31,0.676,0.562,1.066c0.368,0.567,0.784,1.21,0.92,1.978v0c0.22,1.246-0.421,2.233-0.936,3.026  C89.125,63.434,88.861,63.84,88.817,64.091z M51.451,11.927v1.814h10.342c0.811,0,1.468,0.657,1.468,1.468V40.12  c0.471-0.385,1.027-0.738,1.707-0.858c0.036-0.006,0.071-0.01,0.107-0.015V13.873c0-1.073-0.873-1.946-1.946-1.946H51.451z   M55.858,43.868c0,0.602-0.362,1.118-0.881,1.345c0.263-0.09,0.501-0.189,0.628-0.296c0.196-0.165,0.419-0.602,0.616-0.988  c0.364-0.713,0.817-1.6,1.69-2.104c0.781-0.452,1.636-0.453,2.413-0.418v-24.73h-8.874v0.596c0,0.811-0.657,1.468-1.468,1.468  H23.691c-0.811,0-1.468-0.657-1.468-1.468v-0.596h-8.874v57.22h38.453c-0.332-0.64-0.421-1.346-0.501-1.986  c-0.054-0.436-0.116-0.929-0.25-1.161c-0.126-0.218-0.516-0.513-0.86-0.773c-0.64-0.484-1.437-1.086-1.782-2.038  c-0.088-0.244-0.139-0.487-0.162-0.728H34.967c-0.811,0-1.468-0.657-1.468-1.468c0-0.811,0.657-1.468,1.468-1.468h13.674  c0.001-0.068-0.001-0.131-0.01-0.185c-0.048-0.273-0.309-0.676-0.562-1.066c-0.321-0.496-0.68-1.049-0.856-1.694H34.967  c-0.811,0-1.468-0.657-1.468-1.468s0.657-1.468,1.468-1.468h12.879c0.08-0.129,0.161-0.254,0.239-0.374  c0.233-0.358,0.496-0.765,0.541-1.016c0.047-0.263-0.064-0.748-0.162-1.176c-0.186-0.814-0.397-1.737-0.055-2.674  c0.325-0.889,1.018-1.449,1.659-1.935h-15.1c-0.811,0-1.468-0.657-1.468-1.468s0.657-1.468,1.468-1.468h16.472  c0.115-0.564,0.31-1.132,0.725-1.627c0.641-0.765,1.548-1.045,2.348-1.292c0.067-0.021,0.136-0.042,0.205-0.064  c-0.105,0.024-0.214,0.038-0.326,0.038H34.967c-0.811,0-1.468-0.657-1.468-1.468s0.657-1.468,1.468-1.468H54.39  C55.201,42.4,55.858,43.057,55.858,43.868z M25.159,15.805h23.356V9.863h-6.035c-0.678,0-1.268-0.465-1.427-1.124  c-0.471-1.952-2.204-3.315-4.215-3.315c-2.011,0-3.745,1.363-4.216,3.315c-0.159,0.659-0.749,1.124-1.427,1.124h-6.035V15.805z   M52.077,78.647l0.844-1.814H11.88c-0.811,0-1.468-0.657-1.468-1.468V15.209c0-0.811,0.657-1.468,1.468-1.468h10.342v-1.814H10.545  c-1.073,0-1.946,0.873-1.946,1.946v62.828c0,1.073,0.873,1.946,1.946,1.946H52.077z M63.63,81.255  c-0.367-0.255-0.686-0.552-0.971-0.817c-0.317-0.295-0.677-0.63-0.917-0.718c-0.247-0.09-0.743-0.066-1.18-0.044  c-0.837,0.041-1.784,0.088-2.648-0.411c-0.867-0.501-1.299-1.347-1.682-2.093c-0.039-0.077-0.08-0.156-0.121-0.234l-3.86,8.29  l4.178-0.73c0.605-0.105,1.213,0.177,1.522,0.709l2.131,3.667L63.63,81.255z M85.248,83.293l-3.134-7.276  c-0.114,0.051-0.212,0.104-0.278,0.16c-0.196,0.165-0.419,0.602-0.616,0.988c-0.364,0.713-0.817,1.6-1.69,2.104  c-0.859,0.496-1.806,0.448-2.642,0.407c-0.441-0.022-0.94-0.047-1.189,0.044c-0.232,0.084-0.588,0.415-0.902,0.707  c-0.044,0.041-0.089,0.083-0.135,0.125l2.652,6.158l2.236-3.604c0.324-0.522,0.939-0.788,1.542-0.664L85.248,83.293z M87.591,60.525  c-0.039-0.22-0.294-0.614-0.52-0.962c-0.383-0.591-0.817-1.261-0.962-2.082c-0.145-0.822,0.034-1.6,0.192-2.287  c0.08-0.349,0.215-0.934,0.154-1.103c-0.068-0.189-0.543-0.548-0.858-0.785c-0.552-0.417-1.177-0.89-1.581-1.589  c-0.411-0.713-0.51-1.499-0.597-2.193c-0.048-0.384-0.12-0.964-0.241-1.107c-0.125-0.148-0.689-0.322-1.063-0.436  c-0.665-0.204-1.42-0.435-2.044-0.959c-0.626-0.525-0.987-1.229-1.305-1.85c-0.178-0.347-0.446-0.872-0.612-0.967  c-0.164-0.095-0.751-0.066-1.139-0.046c-0.698,0.035-1.488,0.074-2.257-0.207c-0.762-0.278-1.338-0.814-1.846-1.287  c-0.287-0.267-0.721-0.671-0.915-0.706c-0.182-0.034-0.743,0.206-1.08,0.347c-0.645,0.272-1.377,0.58-2.195,0.581  c-0.001,0-0.002,0-0.003,0c-0.804,0-1.523-0.304-2.157-0.572c-0.018-0.008-0.037-0.016-0.055-0.023  c-0.329-0.008-0.63-0.123-0.871-0.313c-0.077-0.016-0.144-0.023-0.192-0.015c-0.203,0.036-0.624,0.427-0.931,0.712  c-0.505,0.47-1.078,1.003-1.836,1.277c-0.013,0.005-0.025,0.007-0.038,0.012c-0.24,0.17-0.532,0.271-0.848,0.271  c-0.141,0-0.277-0.021-0.406-0.058c-0.334,0.01-0.661-0.004-0.969-0.02c-0.365-0.018-0.975-0.048-1.134,0.043  c-0.17,0.098-0.439,0.626-0.618,0.975c-0.316,0.618-0.673,1.319-1.294,1.841c-0.627,0.527-1.383,0.761-2.05,0.967  c-0.372,0.115-0.933,0.288-1.055,0.433c-0.11,0.132-0.18,0.616-0.229,0.994c0.026,0.109,0.041,0.222,0.041,0.339  c0,0.273-0.076,0.528-0.206,0.747c-0.086,0.412-0.216,0.829-0.443,1.223c-0.408,0.705-1.037,1.181-1.593,1.6  c-0.312,0.236-0.784,0.592-0.85,0.774c-0.064,0.175,0.066,0.745,0.152,1.122c0.156,0.682,0.332,1.455,0.189,2.265  c-0.141,0.8-0.566,1.455-0.941,2.033c-0.09,0.138-0.204,0.316-0.305,0.488c-0.022,0.23-0.098,0.444-0.213,0.63  c0.068,0.227,0.297,0.582,0.503,0.899c0.383,0.591,0.817,1.26,0.962,2.082c0.12,0.682,0.017,1.332-0.111,1.927  c0.009,0.067,0.016,0.134,0.016,0.203c0,0.288-0.084,0.555-0.227,0.782c-0.035,0.209-0.053,0.395-0.023,0.479  c0.068,0.188,0.543,0.547,0.857,0.784c0.552,0.417,1.177,0.89,1.581,1.589c0.412,0.713,0.51,1.499,0.597,2.193  c0.048,0.384,0.121,0.964,0.241,1.107c0.125,0.148,0.689,0.321,1.063,0.436c0.666,0.204,1.42,0.435,2.044,0.959  c0.626,0.525,0.987,1.229,1.304,1.85c0.178,0.347,0.446,0.872,0.612,0.967c0.163,0.094,0.75,0.065,1.139,0.046  c0.238-0.012,0.486-0.024,0.741-0.024c0.493,0,1.01,0.046,1.517,0.231c0.762,0.279,1.338,0.814,1.846,1.287  c0.287,0.267,0.721,0.671,0.915,0.705c0.182,0.033,0.743-0.206,1.08-0.347c0.645-0.272,1.377-0.58,2.195-0.581  c0.001,0,0.002,0,0.003,0c0.804,0,1.523,0.304,2.157,0.572c0.386,0.163,0.918,0.385,1.118,0.351  c0.203-0.036,0.624-0.427,0.931-0.712c0.505-0.47,1.078-1.002,1.835-1.277c0.769-0.279,1.562-0.24,2.261-0.205  c0.365,0.018,0.975,0.049,1.133-0.043c0.17-0.098,0.44-0.626,0.618-0.975c0.315-0.618,0.673-1.319,1.294-1.841  c0.627-0.527,1.383-0.761,2.05-0.967c0.372-0.115,0.933-0.288,1.055-0.433c0.123-0.146,0.196-0.731,0.244-1.118  c0.086-0.692,0.184-1.477,0.593-2.184c0.408-0.706,1.038-1.181,1.593-1.601c0.312-0.235,0.784-0.591,0.85-0.773  c0.064-0.176-0.066-0.745-0.152-1.122c-0.156-0.682-0.332-1.454-0.189-2.265c0.141-0.8,0.566-1.455,0.941-2.033  C87.268,61.254,87.623,60.707,87.591,60.525z M83.378,60.547c0,8.082-6.575,14.657-14.657,14.657s-14.657-6.575-14.657-14.657  S60.64,45.89,68.721,45.89S83.378,52.466,83.378,60.547z M80.442,60.547c0-6.463-5.258-11.721-11.72-11.721  s-11.721,5.258-11.721,11.721s5.258,11.721,11.721,11.721S80.442,67.01,80.442,60.547z M77.882,54.672  c0.677,0.673,1.051,1.569,1.053,2.523c0.003,0.954-0.366,1.852-1.039,2.529c-1.733,1.75-2.82,2.864-3.872,3.94  c-1.381,1.413-2.573,2.634-4.881,4.942c-0.698,0.698-1.614,1.046-2.531,1.046c-0.917,0-1.833-0.349-2.53-1.046l-4.526-4.526  c-0.676-0.676-1.048-1.575-1.048-2.531c0-0.956,0.372-1.855,1.048-2.53c0.676-0.676,1.574-1.048,2.53-1.048s1.855,0.372,2.531,1.048  l1.984,1.985l6.224-6.314C74.219,53.29,76.485,53.283,77.882,54.672z M74.911,56.757l-7.257,7.363  c-0.275,0.279-0.649,0.436-1.04,0.437c-0.002,0-0.003,0-0.005,0c-0.389,0-0.763-0.155-1.038-0.43l-3.03-3.03  c-0.164-0.164-0.355-0.188-0.454-0.188s-0.29,0.024-0.454,0.188c-0.164,0.164-0.188,0.355-0.188,0.454  c0,0.099,0.024,0.291,0.188,0.454l4.526,4.526c0.25,0.251,0.658,0.251,0.908,0c2.296-2.296,3.483-3.511,4.857-4.918  c1.006-1.03,2.146-2.197,3.888-3.957c0.164-0.165,0.188-0.354,0.187-0.453c0-0.098-0.025-0.288-0.188-0.449  C75.562,56.507,75.158,56.508,74.911,56.757z"/><text x="0" y="111" fill="#000000" font-size="5px" font-weight="bold" font-family="'Helvetica Neue', Helvetica, Arial-Unicode, Arial, Sans-serif">Created by Eko Purnomo</text><text x="0" y="116" fill="#000000" font-size="5px" font-weight="bold" font-family="'Helvetica Neue', Helvetica, Arial-Unicode, Arial, Sans-serif">from the Noun Project</text></svg>