<?xml version="1.0" encoding="utf-8"?>
<!-- Generator: Adobe Illustrator 27.0.0, SVG Export Plug-In . SVG Version: 6.00 Build 0)  -->
<svg version="1.1" xmlns="http://www.w3.org/2000/svg" xmlns:xlink="http://www.w3.org/1999/xlink" x="0px" y="0px"
	 viewBox="0 0 800 800" style="enable-background:new 0 0 800 800;" xml:space="preserve">
<style type="text/css">
	.st0{fill:#FFFFFF;}
	.st1{fill:#C1505A;}
	.st2{fill:#F0C789;}
	.st3{fill:#B1F2AE;}
</style>
<g id="Layer_2">
	<rect x="98" y="123" class="st0" width="610" height="546"/>
</g>
<g id="Layer_3">
	<rect x="486" y="138" class="st1" width="73.5" height="73.5"/>
	<rect x="565" y="138" class="st2" width="63" height="73.5"/>
	<rect x="636" y="138" class="st3" width="57" height="73.5"/>
</g>
<g id="Capa_1">
	<g id="SVGRepo_bgCarrier">
	</g>
	<g id="SVGRepo_tracerCarrier">
	</g>
	<g id="SVGRepo_iconCarrier">
		<g>
			<g>
				<path d="M693.3,97.2H106.7c-22.1,0-40.1,18-40.1,40.1v525.5c0,22.1,18,40.1,40.1,40.1h586.5c22.1,0,40.1-18,40.1-40.1V137.2
					C733.3,115.2,715.4,97.2,693.3,97.2z M641.3,164.5c0-8.2,6.6-14.8,14.8-14.8h14.8c8.2,0,14.8,6.6,14.8,14.8v16.8
					c0,8.2-6.6,14.8-14.8,14.8h-14.8c-8.2,0-14.8-6.6-14.8-14.8V164.5z M572.5,164.5c0-8.2,6.6-14.8,14.8-14.8h14.8
					c8.2,0,14.8,6.6,14.8,14.8v16.8c0,8.2-6.6,14.8-14.8,14.8h-14.8c-8.2,0-14.8-6.6-14.8-14.8V164.5z M503.7,164.5
					c0-8.2,6.6-14.8,14.8-14.8h14.8c8.2,0,14.8,6.6,14.8,14.8v16.8c0,8.2-6.6,14.8-14.8,14.8h-14.8c-8.2,0-14.8-6.6-14.8-14.8V164.5
					z M114.7,240.5h570.5v162.5l-16.9-11.2c-2.3-1.5-5.1-2.1-7.8-1.5c-2.7,0.5-5,2.1-6.6,4.4l-20.8,31.4
					c-10.4-3.9-21.5-6.6-32.8-7.9l-4.3-37.4c-0.6-5.7-5.8-9.7-11.4-9.1l-42.1,4.8c-5.7,0.6-9.7,5.8-9.1,11.4l4.3,37.4
					c-10.8,3.8-20.9,8.9-30.2,15.1l-27.3-25.9c-4.1-3.9-10.7-3.8-14.6,0.4l-29.2,30.7c-1.9,2-2.9,4.6-2.8,7.4
					c0.1,2.7,1.2,5.3,3.2,7.2l27.4,26c-5.7,9.7-10.2,20-13.5,30.9l-37.6-2.3c-5.7-0.3-10.6,4-10.9,9.7l-2.6,42.3
					c-0.2,2.7,0.8,5.4,2.6,7.5c1.8,2.1,4.4,3.3,7.1,3.5l37.6,2.3c1.9,11.4,5.2,22.2,9.6,32.4l-30.3,22.4c-2.2,1.6-3.7,4.1-4.1,6.8
					c-0.4,2.7,0.3,5.5,1.9,7.7l4,5.4H114.7L114.7,240.5L114.7,240.5z M577.9,498.8c31.2-3.6,59.4,18.8,62.9,50
					c3.6,31.2-18.8,59.4-50,62.9c-31.2,3.6-59.4-18.8-62.9-50C524.4,530.5,546.8,502.4,577.9,498.8z"/>
			</g>
		</g>
	</g>
</g>
</svg>
